<?xml version="1.0" encoding="UTF-8"?>
<svg t="1716713481573" class="icon" viewBox="0 0 1024 1024" version="1.1" xmlns="http://www.w3.org/2000/svg" p-id="2617"
  width="200" height="200">
  <path d="M145.529905 525.726476a366.470095 366.470095 0 1 0 732.94019 0 366.470095 366.470095 0 0 0-732.94019 0z"
    fill="#FFFFFF" p-id="2618"></path>
  <path
    d="M512 24.380952C243.053714 24.380952 24.380952 243.053714 24.380952 512s218.672762 487.619048 487.619048 487.619048 487.619048-218.672762 487.619048-487.619048S780.946286 24.380952 512 24.380952z"
    fill="#42C36F" p-id="2619"></path>
  <path
    d="M512 999.619048c268.946286 0 487.619048-218.672762 487.619048-487.619048 0-159.207619-76.629333-300.81219-194.950096-389.851429"
    fill="#42C36F" p-id="2620"></path>
  <path
    d="M512 803.937524a88.502857 88.502857 0 0 1-32.768-6.022095l-146.627048-60.952381c-19.017143-7.801905-38.424381-27.672381-46.177523-46.445715l-60.611048-147.456c-7.753143-19.139048-7.753143-46.787048 0-65.926095l60.611048-147.431619c7.753143-19.163429 27.501714-38.64381 46.177523-46.445714l146.627048-60.952381c19.017143-7.801905 46.518857-7.801905 65.560381 0l146.627048 60.952381c19.017143 7.801905 38.4 27.648 46.153142 46.445714l60.635429 147.431619c7.753143 19.139048 7.753143 46.811429 0 65.926095l-60.269714 147.456c-7.753143 19.139048-27.501714 38.619429-46.177524 46.421334l-146.627048 60.952381c-9.874286 4.266667-21.504 6.046476-33.133714 6.046476z m0-543.695238c-5.997714 0-11.971048 0.682667-15.847619 2.438095l-146.627048 60.976762c-8.118857 3.559619-19.017143 14.531048-22.552381 22.674286l-60.635428 147.456c-3.510857 8.167619-3.510857 23.747048 0 31.914666l60.635428 147.431619c3.510857 8.167619 14.433524 19.163429 22.552381 22.674286l146.627048 60.976762c8.094476 3.559619 23.600762 3.559619 31.695238 0l146.651429-60.952381c8.094476-3.535238 19.017143-14.531048 22.552381-22.674286l60.611047-147.456c3.535238-8.167619 3.535238-23.747048 0-31.914666l-60.611047-147.431619c-3.535238-8.167619-14.457905-19.139048-22.552381-22.674286l-146.627048-60.976762c-3.900952-1.77981-9.874286-2.486857-15.847619-2.486857z"
    fill="#FFFFFF" p-id="2621"></path>
  <path
    d="M511.658667 612.547048l69.436952 36.839619c22.186667 11.702857 41.935238-2.462476 37.717333-27.623619l-13.409523-77.994667-3.876572 11.702857 56.393143-55.296c17.968762-17.724952 10.581333-41.106286-14.457905-44.665905l-77.165714-11.337143 9.849905 7.070477-34.864762-70.875429c-11.288381-22.674286-35.620571-22.674286-46.908953 0l-34.864761 70.89981 9.849904-7.070477-77.897143 11.312762c-25.014857 3.559619-32.768 26.940952-14.457904 44.665905l56.393143 55.296-3.876572-11.702857-13.385143 77.994667c-4.217905 25.161143 15.506286 39.326476 37.717334 27.623619l69.436952-36.839619h-11.629714z"
    fill="#FFFFFF" p-id="2622"></path>
</svg>
