<?xml version="1.0" encoding="UTF-8"?>
<svg t="1716771398130" class="icon" viewBox="0 0 1028 1024" version="1.1" xmlns="http://www.w3.org/2000/svg" p-id="2489"
  width="200" height="200">
  <path
    d="M798.72 97.28L481.28 12.8C315.733333-32.426667 145.92 66.56 101.546667 232.106667L19.626667 540.16c-44.373333 165.546667 53.76 336.213333 219.306666 379.733333l317.44 84.48c165.546667 44.373333 336.213333-53.76 379.733334-219.306666l81.92-308.053334c44.373333-165.546667-54.613333-336.213333-219.306667-379.733333z m0 0"
    fill="#CAFCD9" p-id="2490"></path>
  <path
    d="M681.813333 68.266667H373.76C212.48 68.266667 81.92 198.826667 81.92 360.106667v299.52c0 161.28 130.56 290.986667 290.986667 290.986666h308.053333c161.28 0 290.986667-130.56 290.986667-290.986666V360.106667C972.8 198.826667 843.093333 68.266667 681.813333 68.266667z m0 0"
    fill="#57CD7E" p-id="2491"></path>
  <path
    d="M272.213333 535.893333h36.693334c8.533333 0 16.213333-7.68 16.213333-16.213333v-14.506667c0-8.533333-7.68-16.213333-16.213333-16.213333h-36.693334c-8.533333 0-16.213333 7.68-16.213333 16.213333v14.506667c0 8.533333 7.68 16.213333 16.213333 16.213333zM325.12 670.72v-14.506667c0-8.533333-7.68-16.213333-16.213333-16.213333h-36.693334c-8.533333 0-16.213333 7.68-16.213333 16.213333v14.506667c0 8.533333 7.68 16.213333 16.213333 16.213333h36.693334c8.533333 0 16.213333-7.68 16.213333-16.213333zM272.213333 384.853333h36.693334c8.533333 0 16.213333-7.68 16.213333-16.213333v-14.506667c0-8.533333-7.68-16.213333-16.213333-16.213333h-36.693334c-8.533333 0-16.213333 7.68-16.213333 16.213333v14.506667c0 8.533333 7.68 16.213333 16.213333 16.213333z"
    fill="#FFFFFF" p-id="2492"></path>
  <path
    d="M735.573333 262.826667h-401.066666c-17.92 0-32.426667 14.506667-32.426667 32.426666v13.653334h15.36c17.92 0 32.426667 14.506667 32.426667 32.426666v39.253334c0 17.92-14.506667 32.426667-32.426667 32.426666h-15.36v46.933334h15.36c17.92 0 32.426667 14.506667 32.426667 32.426666v39.253334c0 17.92-14.506667 32.426667-32.426667 32.426666h-15.36v46.933334h15.36c17.92 0 32.426667 14.506667 32.426667 32.426666V682.666667c0 17.92-14.506667 32.426667-32.426667 32.426666h-15.36v13.653334c0 17.92 14.506667 32.426667 32.426667 32.426666h401.066666c17.92 0 32.426667-14.506667 32.426667-32.426666V295.253333c0-17.92-14.506667-32.426667-32.426667-32.426666zM534.186667 377.173333c37.546667 0 67.413333 29.866667 67.413333 66.56s-29.866667 66.56-67.413333 66.56-67.413333-29.866667-67.413334-66.56 29.866667-66.56 67.413334-66.56zM650.24 614.4c-0.853333 13.653333-11.093333 24.746667-25.6 24.746667H443.733333c-13.653333 0-24.746667-10.24-24.746666-24.746667v-29.866667c0-29.866667 24.746667-54.613333 54.613333-54.613333h122.026667c29.866667 0 54.613333 24.746667 54.613333 54.613333V614.4z"
    fill="#FFFFFF" p-id="2493"></path>
</svg>
