<!-- 鼓励 -->
<svg t="1716977340667" class="icon" viewBox="0 0 1024 1024" version="1.1" xmlns="http://www.w3.org/2000/svg" p-id="5501"
  width="256" height="256">
  <path
    d="M512 59.7248c-249.7792 0-452.2752 202.496-452.2752 452.2752 0 249.7792 202.496 452.2752 452.2752 452.2752 249.7792 0 452.2752-202.496 452.2752-452.2752 0-249.7792-202.496-452.2496-452.2752-452.2496zM110.9248 512c0-221.4912 179.584-401.0496 401.0752-401.0496 221.4912 0 401.0752 179.5584 401.0752 401.0496 0 221.5168-179.584 401.0752-401.0752 401.0752-221.4912 0-401.0752-179.5584-401.0752-401.0752z m169.3696-50.4576c14.976-24.0128 28.1856-32.8704 35.9168-33.92 3.84-0.512 16.6912 0.0256 35.2512 32.9472a25.6 25.6 0 1 0 44.5952-25.1392c-21.76-38.656-50.7904-63.3344-86.6304-58.5472-31.9488 4.2752-56.1408 31.1808-72.6016 57.5744a25.6 25.6 0 1 0 43.4688 27.0848z m427.5968-33.92c-7.7056 1.024-20.9664 9.9072-35.9168 33.92a25.6 25.6 0 0 1-43.4688-27.0848c16.4608-26.368 40.6528-53.2992 72.6016-57.5744 35.84-4.7872 64.8704 19.8912 86.6304 58.5472a25.6 25.6 0 1 1-44.5952 25.1392c-18.5344-32.9216-31.4368-33.4336-35.2512-32.9472zM311.936 576.512a216.3968 216.3968 0 0 0 400.128 0 25.6 25.6 0 0 1 47.36 19.5072A267.5968 267.5968 0 0 1 512 761.6c-111.6928 0-207.36-68.4544-247.3984-165.6064a25.6 25.6 0 0 1 47.3344-19.5072z"
    p-id="5502" fill="#5B5959"></path>
</svg>
