<!-- 推广 -->
<?xml version="1.0" encoding="UTF-8"?>
<svg t="1716976583379" class="icon" viewBox="0 0 1024 1024" version="1.1" xmlns="http://www.w3.org/2000/svg" p-id="7604"
  width="200" height="200">
  <path
    d="M261.903616 614.1696l412.4672-280.2688a26.24 26.24 0 1 1 29.4912 43.4688L284.124416 662.528v204.2368l86.5792-87.8592c1.2032-1.1776 1.2032-1.1776 2.4576-2.304a52.48 52.48 0 0 1 74.112 4.2752L572.534016 921.6 973.020416 153.6 51.420416 384.6144l210.4832 229.5552z m12.7232 28.032l-11.2128 21.1968 11.2128-7.6288v-13.568z m-42.2656 16.3072l-218.368-238.0032a52.3776 52.3776 0 0 1 25.856-86.2208l919.296-230.2976a52.352 52.352 0 0 1 59.136 75.0336L618.793216 944.64a52.352 52.352 0 0 1-85.504 10.5984l-124.928-140.2624-86.3744 87.5776a52.352 52.352 0 0 1-89.6256-36.7872v-207.2576z"
    fill="#5B5959" p-id="7605"></path>
</svg>
