<!-- 计划 -->
<svg t="1716977075163" class="icon" viewBox="0 0 1024 1024" version="1.1" xmlns="http://www.w3.org/2000/svg" p-id="2190"
  width="256" height="256">
  <path d="M600.777 743.564h246.768v48H600.777z" p-id="2191" fill="#5B5959"></path>
  <path d="M700.161 644.181h48v246.768h-48z" p-id="2192" fill="#5B5959"></path>
  <path
    d="M433.969 893.734H242.126c-48.61 0-88.158-39.547-88.158-88.157V229.892c0-48.61 39.547-88.157 88.158-88.157h480.685c48.61 0 88.157 39.547 88.157 88.157v227.843c0 13.255-10.745 24-24 24s-24-10.745-24-24V229.892c0-22.143-18.015-40.157-40.157-40.157H242.126c-22.143 0-40.158 18.015-40.158 40.157v575.685c0 22.143 18.015 40.157 40.158 40.157h191.842c13.255 0 24 10.745 24 24s-10.744 24-23.999 24z"
    p-id="2193" fill="#5B5959"></path>
  <path d="M305.969 301.735h368.71v48h-368.71zM305.969 493.734h246.768v48H305.969z" p-id="2194" fill="#5B5959"></path>
</svg>
