<!-- 设置 -->
<svg t="1716977095327" class="icon" viewBox="0 0 1024 1024" version="1.1" xmlns="http://www.w3.org/2000/svg" p-id="2428"
  width="256" height="256">
  <path
    d="M463.424 154.288L433.28 232.48a19.2 19.2 0 0 1-12.064 11.376 294.432 294.432 0 0 0-71.44 34.032 19.2 19.2 0 0 1-16.288 2.24l-80.896-25.552a371.456 371.456 0 0 0-60.432 74.704l43.04 71.904c3.008 5.056 3.552 11.2 1.456 16.704a285.36 285.36 0 0 0-17.552 76.224 19.2 19.2 0 0 1-8.56 14.336L140.048 554.88c3.072 32.416 10.4 63.6 21.424 93.024l84.128 11.648a19.2 19.2 0 0 1 13.776 9.072 292.304 292.304 0 0 0 49.44 61.152 19.2 19.2 0 0 1 5.936 15.616l-7.2 83.36a374.112 374.112 0 0 0 87.408 41.6l61.696-57.744a19.2 19.2 0 0 1 15.664-5.008 300.72 300.72 0 0 0 79.36 0 19.2 19.2 0 0 1 15.664 5.008l61.696 57.744a374.08 374.08 0 0 0 87.408-41.6l-7.2-83.36a19.2 19.2 0 0 1 5.952-15.616 292.224 292.224 0 0 0 49.424-61.152 19.2 19.2 0 0 1 13.776-9.072l84.128-11.648a362.72 362.72 0 0 0 21.44-93.024l-70.512-46.432a19.2 19.2 0 0 1-8.56-14.336 285.36 285.36 0 0 0-17.552-76.224 19.2 19.2 0 0 1 1.472-16.704l43.04-71.904a371.408 371.408 0 0 0-60.448-74.72l-80.896 25.568a19.2 19.2 0 0 1-16.288-2.24 294.4 294.4 0 0 0-71.44-34.032 19.2 19.2 0 0 1-12.064-11.376l-30.144-78.208a382.176 382.176 0 0 0-97.152 0zM446.56 117.904A419.68 419.68 0 0 1 512 112.8c22.256 0 44.112 1.76 65.44 5.12a19.2 19.2 0 0 1 14.928 12.048l30.928 80.288a332.928 332.928 0 0 1 64.16 30.576l83.008-26.208a19.2 19.2 0 0 1 18.624 4.016 409.696 409.696 0 0 1 81.76 101.168 19.2 19.2 0 0 1-0.176 19.392l-44.224 73.888c7.6 21.824 12.928 44.688 15.728 68.304l72.384 47.68c5.76 3.792 9.04 10.384 8.608 17.28a401.28 401.28 0 0 1-29.088 126.32 19.2 19.2 0 0 1-15.136 11.744l-86.384 11.952a330.784 330.784 0 0 1-44.272 54.816l7.392 85.584a19.2 19.2 0 0 1-8.224 17.44 412.48 412.48 0 0 1-117.984 56.208 19.2 19.2 0 0 1-18.528-4.4l-63.328-59.248a339.904 339.904 0 0 1-71.232 0l-63.328 59.248a19.2 19.2 0 0 1-18.528 4.4 412.528 412.528 0 0 1-117.968-56.192 19.2 19.2 0 0 1-8.24-17.472l7.392-85.568a330.784 330.784 0 0 1-44.272-54.8l-86.384-11.968a19.2 19.2 0 0 1-15.12-11.744 401.232 401.232 0 0 1-29.088-126.336 19.2 19.2 0 0 1 8.592-17.28l72.384-47.68c2.8-23.6 8.128-46.464 15.728-68.288L153.328 339.2a19.2 19.2 0 0 1-0.176-19.392 409.728 409.728 0 0 1 81.76-101.168 19.2 19.2 0 0 1 18.608-4.016l83.008 26.208a332.688 332.688 0 0 1 64.16-30.56l30.944-80.304a19.2 19.2 0 0 1 14.928-12.064z m71.216 259.232c-77.488 0-139.904 61.984-139.904 137.968 0 75.968 62.4 137.968 139.904 137.968 77.504 0 139.92-62 139.92-137.968 0-75.984-62.416-137.968-139.92-137.968z m-178.304 137.968c0-97.632 80.048-176.368 178.304-176.368s178.32 78.72 178.32 176.368c0 97.616-80.064 176.368-178.32 176.368-98.24 0-178.304-78.752-178.304-176.368z"
    fill="#5B5959" p-id="2429"></path>
</svg>
