<!-- 分享 -->
<svg t="1716977023334" class="icon" viewBox="0 0 1024 1024" version="1.1" xmlns="http://www.w3.org/2000/svg" p-id="4983"
  width="256" height="256">
  <path d="M11 422h895v224H11z" fill="#FFFFFF" p-id="4984"></path>
  <path
    d="M1016.2 811.2c-13.3-62.5-68.4-105.3-129.8-105.3-9.2 0-18.4 1-27.8 2.9-60.8 12.9-102.8 65.5-105 124.9l-485.2 28.1c-0.5-5.6-1.2-11.1-2.3-16.7-11-51.5-50.6-89.3-98.5-101 17.8-54.5 62.6-187.7 137.1-381.9 15.8 4.6 32.1 7.6 49 7.6 12.2 0 24.6-1.3 37-3.9 95.7-20.3 156.8-114.4 136.5-210.1-17.9-83.4-91.5-140.4-173.3-140.4-12.2 0-24.6 1.3-37 3.9C221.1 39.6 160 133.7 180.4 229.4c10.5 49.5 41 89.3 80.9 113.8-81 211.1-127.5 351.5-142.5 397.9-3.5 0.5-7 0.9-10.5 1.7C36.6 758-9.2 828.6 6 900.4c13.3 62.5 68.4 105.3 129.8 105.3 9.2 0 18.4-1 27.8-2.9 49.7-10.6 86.9-47.7 100.1-93.4l496.9-28.7c18.1 54.6 68.9 91.1 125.5 91.1 9.2 0 18.4-1 27.8-2.9 71.7-15.4 117.5-85.9 102.3-157.7zM226.5 219.6c-7.2-34-0.8-68.7 18.1-97.8 18.9-29.1 48-49.1 82-56.4 9-1.9 18.1-2.9 27.2-2.9 60.9 0 114.3 43.3 127 103 7.2 34 0.8 68.7-18.1 97.8-18.9 29.1-48 49.1-82 56.4-9 1.9-18.1 2.9-27.2 2.9-60.9 0-114.3-43.3-127-103z m-72.7 737c-5.9 1.3-12 1.9-18 1.9-40.1 0-75.3-28.6-83.7-67.9-9.8-46.2 19.8-91.8 66-101.7 5.9-1.3 12-1.9 18-1.9 40.1 0 75.3 28.6 83.7 67.9 9.9 46.3-19.7 91.9-66 101.7zM904 922.7c-5.9 1.3-12 1.9-18 1.9-40.1 0-75.3-28.6-83.7-67.9-9.8-46.2 19.8-91.8 66-101.7 5.9-1.3 12-1.9 18-1.9 40.1 0 75.3 28.6 83.7 67.9 9.9 46.2-19.7 91.8-66 101.7z"
    fill="#5B5959" p-id="4985"></path>
</svg>
